<mxfile host="Electron" modified="2023-06-02T16:43:01.083Z" agent="Mozilla/5.0 (Windows NT 10.0; Win64; x64) AppleWebKit/537.36 (KHTML, like Gecko) draw.io/21.2.8 Chrome/112.0.5615.165 Electron/24.2.0 Safari/537.36" etag="uJ5MIycW9Ebvzydsf85S" version="21.2.8" type="device">
  <diagram name="Page-1" id="mLQ_XVHuGvEOCb3nRhEn">
    <mxGraphModel dx="2026" dy="1183" grid="1" gridSize="10" guides="1" tooltips="1" connect="1" arrows="1" fold="1" page="1" pageScale="1" pageWidth="1169" pageHeight="1654" math="0" shadow="0">
      <root>
        <mxCell id="0" />
        <mxCell id="1" parent="0" />
        <mxCell id="KvnRA5Yr2zpOSTINbMvu-146" style="edgeStyle=orthogonalEdgeStyle;rounded=0;orthogonalLoop=1;jettySize=auto;html=1;exitX=0.5;exitY=1;exitDx=0;exitDy=0;exitPerimeter=0;strokeWidth=2;endArrow=none;endFill=0;" parent="1" target="KvnRA5Yr2zpOSTINbMvu-25" edge="1">
          <mxGeometry relative="1" as="geometry">
            <mxPoint x="99.05500000000006" y="148.74" as="sourcePoint" />
            <Array as="points">
              <mxPoint x="99" y="1230" />
              <mxPoint x="100" y="1230" />
            </Array>
          </mxGeometry>
        </mxCell>
        <mxCell id="_mmpPYD25XxmWE7m6DI2-28" style="edgeStyle=orthogonalEdgeStyle;rounded=0;orthogonalLoop=1;jettySize=auto;html=1;exitX=1;exitY=0.5;exitDx=0;exitDy=0;entryX=0;entryY=0.5;entryDx=0;entryDy=0;entryPerimeter=0;endArrow=none;endFill=0;strokeWidth=2;" parent="1" source="KvnRA5Yr2zpOSTINbMvu-6" target="KvnRA5Yr2zpOSTINbMvu-45" edge="1">
          <mxGeometry relative="1" as="geometry" />
        </mxCell>
        <mxCell id="KvnRA5Yr2zpOSTINbMvu-6" value="Открытие страницы&lt;br&gt;&quot;Аккаунт&quot;" style="rounded=0;whiteSpace=wrap;html=1;absoluteArcSize=1;arcSize=14;strokeWidth=2;" parent="1" vertex="1">
          <mxGeometry x="202.5200000000002" y="122.25999999999999" width="118.11" height="78.74" as="geometry" />
        </mxCell>
        <mxCell id="3LMkU-X2zRB7gaWDaqeF-50" style="edgeStyle=orthogonalEdgeStyle;rounded=0;orthogonalLoop=1;jettySize=auto;html=1;exitX=0.5;exitY=1;exitDx=0;exitDy=0;exitPerimeter=0;entryX=0.5;entryY=1;entryDx=0;entryDy=0;entryPerimeter=0;strokeWidth=2;endArrow=none;endFill=0;" parent="1" source="KvnRA5Yr2zpOSTINbMvu-25" target="3LMkU-X2zRB7gaWDaqeF-48" edge="1">
          <mxGeometry relative="1" as="geometry" />
        </mxCell>
        <mxCell id="KvnRA5Yr2zpOSTINbMvu-25" value="TM" style="strokeWidth=2;html=1;shape=mxgraph.flowchart.start_2;whiteSpace=wrap;" parent="1" vertex="1">
          <mxGeometry x="81.89000000000013" y="1557.3100000000002" width="39.37" height="39.37" as="geometry" />
        </mxCell>
        <mxCell id="_mmpPYD25XxmWE7m6DI2-30" style="edgeStyle=orthogonalEdgeStyle;rounded=0;orthogonalLoop=1;jettySize=auto;html=1;exitX=1;exitY=0.5;exitDx=0;exitDy=0;exitPerimeter=0;entryX=0;entryY=0.5;entryDx=0;entryDy=0;strokeWidth=2;endArrow=none;endFill=0;" parent="1" source="KvnRA5Yr2zpOSTINbMvu-45" target="KvnRA5Yr2zpOSTINbMvu-51" edge="1">
          <mxGeometry relative="1" as="geometry" />
        </mxCell>
        <mxCell id="_4HLBdeWDB0E14U4nkhD-1" style="edgeStyle=orthogonalEdgeStyle;rounded=0;orthogonalLoop=1;jettySize=auto;html=1;exitX=0.5;exitY=1;exitDx=0;exitDy=0;exitPerimeter=0;entryX=0.5;entryY=0;entryDx=0;entryDy=0;strokeWidth=2;endArrow=none;endFill=0;" edge="1" parent="1" source="KvnRA5Yr2zpOSTINbMvu-45" target="KvnRA5Yr2zpOSTINbMvu-46">
          <mxGeometry relative="1" as="geometry" />
        </mxCell>
        <mxCell id="KvnRA5Yr2zpOSTINbMvu-45" value="Авторизован" style="strokeWidth=2;html=1;shape=mxgraph.flowchart.decision;whiteSpace=wrap;" parent="1" vertex="1">
          <mxGeometry x="360" y="122.25999999999999" width="118.11" height="78.74" as="geometry" />
        </mxCell>
        <mxCell id="3LMkU-X2zRB7gaWDaqeF-35" style="edgeStyle=orthogonalEdgeStyle;rounded=0;orthogonalLoop=1;jettySize=auto;html=1;exitX=0.5;exitY=1;exitDx=0;exitDy=0;entryX=0.5;entryY=0;entryDx=0;entryDy=0;entryPerimeter=0;strokeWidth=2;endArrow=none;endFill=0;" parent="1" source="KvnRA5Yr2zpOSTINbMvu-46" target="3LMkU-X2zRB7gaWDaqeF-12" edge="1">
          <mxGeometry relative="1" as="geometry" />
        </mxCell>
        <mxCell id="KvnRA5Yr2zpOSTINbMvu-46" value="Отображение страницы&lt;br&gt;&quot;Мой профиль&quot;" style="rounded=0;whiteSpace=wrap;html=1;absoluteArcSize=1;arcSize=14;strokeWidth=2;" parent="1" vertex="1">
          <mxGeometry x="360.63" y="690.0000000000002" width="118.11" height="78.74" as="geometry" />
        </mxCell>
        <mxCell id="_mmpPYD25XxmWE7m6DI2-32" style="edgeStyle=orthogonalEdgeStyle;rounded=0;orthogonalLoop=1;jettySize=auto;html=1;exitX=1;exitY=0.5;exitDx=0;exitDy=0;entryX=0;entryY=0.5;entryDx=0;entryDy=0;entryPerimeter=0;strokeWidth=2;endArrow=none;endFill=0;" parent="1" source="KvnRA5Yr2zpOSTINbMvu-51" target="_mmpPYD25XxmWE7m6DI2-2" edge="1">
          <mxGeometry relative="1" as="geometry" />
        </mxCell>
        <mxCell id="KvnRA5Yr2zpOSTINbMvu-51" value="Отображение страницы&lt;br&gt;&quot;Вход в аккаунт&quot;" style="rounded=0;whiteSpace=wrap;html=1;absoluteArcSize=1;arcSize=14;strokeWidth=2;" parent="1" vertex="1">
          <mxGeometry x="520" y="122.25999999999999" width="118.11" height="78.74" as="geometry" />
        </mxCell>
        <mxCell id="khyOvqJB74KbkY-MV7Ck-98" style="edgeStyle=orthogonalEdgeStyle;rounded=0;orthogonalLoop=1;jettySize=auto;html=1;exitX=0.5;exitY=1;exitDx=0;exitDy=0;endArrow=none;endFill=0;strokeWidth=2;" parent="1" source="khyOvqJB74KbkY-MV7Ck-97" edge="1">
          <mxGeometry relative="1" as="geometry">
            <mxPoint x="99" y="150" as="targetPoint" />
          </mxGeometry>
        </mxCell>
        <mxCell id="3LMkU-X2zRB7gaWDaqeF-1" style="edgeStyle=orthogonalEdgeStyle;rounded=0;orthogonalLoop=1;jettySize=auto;html=1;exitX=0.5;exitY=1;exitDx=0;exitDy=0;entryX=0;entryY=0.5;entryDx=0;entryDy=0;strokeWidth=2;endArrow=none;endFill=0;" parent="1" source="khyOvqJB74KbkY-MV7Ck-97" target="KvnRA5Yr2zpOSTINbMvu-6" edge="1">
          <mxGeometry relative="1" as="geometry" />
        </mxCell>
        <mxCell id="khyOvqJB74KbkY-MV7Ck-97" value="Л3" style="verticalLabelPosition=middle;verticalAlign=middle;html=1;shape=offPageConnector;rounded=0;size=0.5;strokeWidth=2;labelPosition=center;align=center;" parent="1" vertex="1">
          <mxGeometry x="79.37" y="39.999999999999886" width="39.37" height="47.244" as="geometry" />
        </mxCell>
        <mxCell id="_mmpPYD25XxmWE7m6DI2-33" style="edgeStyle=orthogonalEdgeStyle;rounded=0;orthogonalLoop=1;jettySize=auto;html=1;exitX=0.5;exitY=1;exitDx=0;exitDy=0;exitPerimeter=0;entryX=0.5;entryY=0;entryDx=0;entryDy=0;entryPerimeter=0;strokeWidth=2;endArrow=none;endFill=0;" parent="1" source="_mmpPYD25XxmWE7m6DI2-2" target="_mmpPYD25XxmWE7m6DI2-3" edge="1">
          <mxGeometry relative="1" as="geometry" />
        </mxCell>
        <mxCell id="_mmpPYD25XxmWE7m6DI2-2" value="Бесконечный цикл" style="strokeWidth=2;html=1;shape=mxgraph.flowchart.loop_limit;whiteSpace=wrap;" parent="1" vertex="1">
          <mxGeometry x="680" y="122.25999999999999" width="118.11" height="78.74" as="geometry" />
        </mxCell>
        <mxCell id="_mmpPYD25XxmWE7m6DI2-34" style="edgeStyle=orthogonalEdgeStyle;rounded=0;orthogonalLoop=1;jettySize=auto;html=1;exitX=1;exitY=0.5;exitDx=0;exitDy=0;exitPerimeter=0;entryX=0;entryY=0.5;entryDx=0;entryDy=0;entryPerimeter=0;strokeWidth=2;endArrow=none;endFill=0;" parent="1" source="_mmpPYD25XxmWE7m6DI2-3" target="_mmpPYD25XxmWE7m6DI2-4" edge="1">
          <mxGeometry relative="1" as="geometry" />
        </mxCell>
        <mxCell id="_mmpPYD25XxmWE7m6DI2-35" style="edgeStyle=orthogonalEdgeStyle;rounded=0;orthogonalLoop=1;jettySize=auto;html=1;exitX=0.5;exitY=1;exitDx=0;exitDy=0;exitPerimeter=0;entryX=0.5;entryY=0;entryDx=0;entryDy=0;entryPerimeter=0;strokeWidth=2;endArrow=none;endFill=0;" parent="1" source="_mmpPYD25XxmWE7m6DI2-3" target="_mmpPYD25XxmWE7m6DI2-5" edge="1">
          <mxGeometry relative="1" as="geometry" />
        </mxCell>
        <mxCell id="_mmpPYD25XxmWE7m6DI2-3" value="Выбран&lt;br&gt;другой&lt;br&gt;таб" style="strokeWidth=2;html=1;shape=mxgraph.flowchart.decision;whiteSpace=wrap;" parent="1" vertex="1">
          <mxGeometry x="679.9999999999999" y="220" width="118.11" height="78.74" as="geometry" />
        </mxCell>
        <mxCell id="_mmpPYD25XxmWE7m6DI2-4" value="TM" style="strokeWidth=2;html=1;shape=mxgraph.flowchart.start_2;whiteSpace=wrap;" parent="1" vertex="1">
          <mxGeometry x="879.37" y="239.69000000000005" width="39.37" height="39.37" as="geometry" />
        </mxCell>
        <mxCell id="_mmpPYD25XxmWE7m6DI2-36" style="edgeStyle=orthogonalEdgeStyle;rounded=0;orthogonalLoop=1;jettySize=auto;html=1;exitX=1;exitY=0.5;exitDx=0;exitDy=0;exitPerimeter=0;entryX=0;entryY=0.5;entryDx=0;entryDy=0;entryPerimeter=0;strokeWidth=2;endArrow=none;endFill=0;" parent="1" source="_mmpPYD25XxmWE7m6DI2-5" target="_mmpPYD25XxmWE7m6DI2-6" edge="1">
          <mxGeometry relative="1" as="geometry" />
        </mxCell>
        <mxCell id="3LMkU-X2zRB7gaWDaqeF-8" style="edgeStyle=orthogonalEdgeStyle;rounded=0;orthogonalLoop=1;jettySize=auto;html=1;exitX=0.5;exitY=1;exitDx=0;exitDy=0;exitPerimeter=0;entryX=0.5;entryY=0;entryDx=0;entryDy=0;entryPerimeter=0;strokeWidth=2;endArrow=none;endFill=0;" parent="1" source="_mmpPYD25XxmWE7m6DI2-5" target="3LMkU-X2zRB7gaWDaqeF-7" edge="1">
          <mxGeometry relative="1" as="geometry" />
        </mxCell>
        <mxCell id="_mmpPYD25XxmWE7m6DI2-5" value="Забыли пароль" style="strokeWidth=2;html=1;shape=mxgraph.flowchart.decision;whiteSpace=wrap;" parent="1" vertex="1">
          <mxGeometry x="681.2599999999999" y="320" width="118.11" height="78.74" as="geometry" />
        </mxCell>
        <mxCell id="_mmpPYD25XxmWE7m6DI2-13" style="edgeStyle=orthogonalEdgeStyle;rounded=0;orthogonalLoop=1;jettySize=auto;html=1;exitX=0.5;exitY=1;exitDx=0;exitDy=0;exitPerimeter=0;entryX=0.5;entryY=0;entryDx=0;entryDy=0;entryPerimeter=0;strokeWidth=2;endArrow=none;endFill=0;" parent="1" source="_mmpPYD25XxmWE7m6DI2-6" target="_mmpPYD25XxmWE7m6DI2-7" edge="1">
          <mxGeometry relative="1" as="geometry" />
        </mxCell>
        <mxCell id="_mmpPYD25XxmWE7m6DI2-6" value="Бесконечный цикл" style="strokeWidth=2;html=1;shape=mxgraph.flowchart.loop_limit;whiteSpace=wrap;" parent="1" vertex="1">
          <mxGeometry x="840" y="320" width="118.11" height="78.74" as="geometry" />
        </mxCell>
        <mxCell id="_mmpPYD25XxmWE7m6DI2-14" style="edgeStyle=orthogonalEdgeStyle;rounded=0;orthogonalLoop=1;jettySize=auto;html=1;exitX=0.5;exitY=1;exitDx=0;exitDy=0;exitPerimeter=0;entryX=0.5;entryY=0;entryDx=0;entryDy=0;entryPerimeter=0;strokeWidth=2;endArrow=none;endFill=0;" parent="1" source="_mmpPYD25XxmWE7m6DI2-7" target="_mmpPYD25XxmWE7m6DI2-9" edge="1">
          <mxGeometry relative="1" as="geometry" />
        </mxCell>
        <mxCell id="_mmpPYD25XxmWE7m6DI2-16" style="edgeStyle=orthogonalEdgeStyle;rounded=0;orthogonalLoop=1;jettySize=auto;html=1;exitX=1;exitY=0.5;exitDx=0;exitDy=0;exitPerimeter=0;entryX=0;entryY=0.5;entryDx=0;entryDy=0;entryPerimeter=0;strokeWidth=2;endArrow=none;endFill=0;" parent="1" source="_mmpPYD25XxmWE7m6DI2-7" target="_mmpPYD25XxmWE7m6DI2-8" edge="1">
          <mxGeometry relative="1" as="geometry" />
        </mxCell>
        <mxCell id="_mmpPYD25XxmWE7m6DI2-7" value="Выбран&lt;br&gt;другой&lt;br&gt;таб" style="strokeWidth=2;html=1;shape=mxgraph.flowchart.decision;whiteSpace=wrap;" parent="1" vertex="1">
          <mxGeometry x="839.9999999999999" y="420.32000000000016" width="118.11" height="78.74" as="geometry" />
        </mxCell>
        <mxCell id="_mmpPYD25XxmWE7m6DI2-8" value="TM" style="strokeWidth=2;html=1;shape=mxgraph.flowchart.start_2;whiteSpace=wrap;" parent="1" vertex="1">
          <mxGeometry x="1160" y="440.0000000000002" width="39.37" height="39.37" as="geometry" />
        </mxCell>
        <mxCell id="_mmpPYD25XxmWE7m6DI2-25" style="edgeStyle=orthogonalEdgeStyle;rounded=0;orthogonalLoop=1;jettySize=auto;html=1;exitX=0.5;exitY=1;exitDx=0;exitDy=0;exitPerimeter=0;entryX=0.5;entryY=0;entryDx=0;entryDy=0;entryPerimeter=0;endArrow=none;endFill=0;strokeWidth=2;" parent="1" source="_mmpPYD25XxmWE7m6DI2-9" target="_mmpPYD25XxmWE7m6DI2-23" edge="1">
          <mxGeometry relative="1" as="geometry" />
        </mxCell>
        <mxCell id="3LMkU-X2zRB7gaWDaqeF-55" style="edgeStyle=orthogonalEdgeStyle;rounded=0;orthogonalLoop=1;jettySize=auto;html=1;exitX=1;exitY=0.5;exitDx=0;exitDy=0;exitPerimeter=0;entryX=0;entryY=0.5;entryDx=0;entryDy=0;strokeWidth=2;endArrow=none;endFill=0;" parent="1" source="_mmpPYD25XxmWE7m6DI2-9" target="3LMkU-X2zRB7gaWDaqeF-54" edge="1">
          <mxGeometry relative="1" as="geometry" />
        </mxCell>
        <mxCell id="_mmpPYD25XxmWE7m6DI2-9" value="Отправлен&lt;br&gt;запрос" style="strokeWidth=2;html=1;shape=mxgraph.flowchart.decision;whiteSpace=wrap;" parent="1" vertex="1">
          <mxGeometry x="839.37" y="522" width="118.11" height="78.74" as="geometry" />
        </mxCell>
        <mxCell id="_mmpPYD25XxmWE7m6DI2-29" style="edgeStyle=orthogonalEdgeStyle;rounded=0;orthogonalLoop=1;jettySize=auto;html=1;exitX=0.5;exitY=1;exitDx=0;exitDy=0;exitPerimeter=0;entryX=0;entryY=0.5;entryDx=0;entryDy=0;entryPerimeter=0;strokeWidth=2;endArrow=none;endFill=0;" parent="1" source="_mmpPYD25XxmWE7m6DI2-10" target="KvnRA5Yr2zpOSTINbMvu-45" edge="1">
          <mxGeometry relative="1" as="geometry" />
        </mxCell>
        <mxCell id="_mmpPYD25XxmWE7m6DI2-10" value="Г1" style="strokeWidth=2;html=1;shape=mxgraph.flowchart.start_2;whiteSpace=wrap;" parent="1" vertex="1">
          <mxGeometry x="320.63000000000005" y="70" width="39.37" height="39.37" as="geometry" />
        </mxCell>
        <mxCell id="_mmpPYD25XxmWE7m6DI2-11" value="Г1" style="strokeWidth=2;html=1;shape=mxgraph.flowchart.start_2;whiteSpace=wrap;" parent="1" vertex="1">
          <mxGeometry x="1160" y="541.6800000000001" width="39.37" height="39.37" as="geometry" />
        </mxCell>
        <mxCell id="3LMkU-X2zRB7gaWDaqeF-5" style="edgeStyle=orthogonalEdgeStyle;rounded=0;orthogonalLoop=1;jettySize=auto;html=1;exitX=0.5;exitY=0;exitDx=0;exitDy=0;exitPerimeter=0;entryX=0.5;entryY=1;entryDx=0;entryDy=0;entryPerimeter=0;strokeWidth=2;endArrow=none;endFill=0;" parent="1" source="_mmpPYD25XxmWE7m6DI2-12" target="3LMkU-X2zRB7gaWDaqeF-4" edge="1">
          <mxGeometry relative="1" as="geometry">
            <Array as="points">
              <mxPoint x="899" y="820" />
              <mxPoint x="741" y="820" />
            </Array>
          </mxGeometry>
        </mxCell>
        <mxCell id="_mmpPYD25XxmWE7m6DI2-12" value="Конец цикла" style="strokeWidth=2;html=1;shape=mxgraph.flowchart.loop_limit;whiteSpace=wrap;flipH=1;flipV=1;" parent="1" vertex="1">
          <mxGeometry x="840" y="720" width="118.11" height="78.74" as="geometry" />
        </mxCell>
        <mxCell id="_mmpPYD25XxmWE7m6DI2-26" style="edgeStyle=orthogonalEdgeStyle;rounded=0;orthogonalLoop=1;jettySize=auto;html=1;exitX=1;exitY=0.5;exitDx=0;exitDy=0;exitPerimeter=0;entryX=0;entryY=0.5;entryDx=0;entryDy=0;entryPerimeter=0;strokeWidth=2;endArrow=none;endFill=0;" parent="1" source="_mmpPYD25XxmWE7m6DI2-23" target="_mmpPYD25XxmWE7m6DI2-24" edge="1">
          <mxGeometry relative="1" as="geometry" />
        </mxCell>
        <mxCell id="_mmpPYD25XxmWE7m6DI2-27" style="edgeStyle=orthogonalEdgeStyle;rounded=0;orthogonalLoop=1;jettySize=auto;html=1;exitX=0.5;exitY=1;exitDx=0;exitDy=0;exitPerimeter=0;entryX=0.5;entryY=1;entryDx=0;entryDy=0;entryPerimeter=0;strokeWidth=2;endArrow=none;endFill=0;" parent="1" source="_mmpPYD25XxmWE7m6DI2-23" target="_mmpPYD25XxmWE7m6DI2-12" edge="1">
          <mxGeometry relative="1" as="geometry" />
        </mxCell>
        <mxCell id="_mmpPYD25XxmWE7m6DI2-23" value="Вернуться&lt;br&gt;назад" style="strokeWidth=2;html=1;shape=mxgraph.flowchart.decision;whiteSpace=wrap;" parent="1" vertex="1">
          <mxGeometry x="840" y="620" width="118.11" height="78.74" as="geometry" />
        </mxCell>
        <mxCell id="_mmpPYD25XxmWE7m6DI2-24" value="Г1" style="strokeWidth=2;html=1;shape=mxgraph.flowchart.start_2;whiteSpace=wrap;" parent="1" vertex="1">
          <mxGeometry x="1160.0000000000002" y="639.6800000000001" width="39.37" height="39.37" as="geometry" />
        </mxCell>
        <mxCell id="3LMkU-X2zRB7gaWDaqeF-2" value="case AccountTab" style="text;html=1;align=center;verticalAlign=middle;resizable=0;points=[];autosize=1;strokeColor=none;fillColor=none;" parent="1" vertex="1">
          <mxGeometry x="92.52" y="130" width="110" height="30" as="geometry" />
        </mxCell>
        <mxCell id="3LMkU-X2zRB7gaWDaqeF-4" value="Xx" style="strokeWidth=2;html=1;shape=mxgraph.flowchart.loop_limit;whiteSpace=wrap;flipH=1;flipV=1;" parent="1" vertex="1">
          <mxGeometry x="682" y="840" width="118.11" height="78.74" as="geometry" />
        </mxCell>
        <mxCell id="3LMkU-X2zRB7gaWDaqeF-11" style="edgeStyle=orthogonalEdgeStyle;rounded=0;orthogonalLoop=1;jettySize=auto;html=1;exitX=0.5;exitY=1;exitDx=0;exitDy=0;exitPerimeter=0;entryX=0.5;entryY=1;entryDx=0;entryDy=0;entryPerimeter=0;strokeWidth=2;endArrow=none;endFill=0;" parent="1" source="3LMkU-X2zRB7gaWDaqeF-7" target="3LMkU-X2zRB7gaWDaqeF-4" edge="1">
          <mxGeometry relative="1" as="geometry" />
        </mxCell>
        <mxCell id="3LMkU-X2zRB7gaWDaqeF-77" style="edgeStyle=orthogonalEdgeStyle;rounded=0;orthogonalLoop=1;jettySize=auto;html=1;exitX=0;exitY=0.5;exitDx=0;exitDy=0;exitPerimeter=0;entryX=1;entryY=0.5;entryDx=0;entryDy=0;strokeWidth=2;" parent="1" source="3LMkU-X2zRB7gaWDaqeF-7" target="3LMkU-X2zRB7gaWDaqeF-76" edge="1">
          <mxGeometry relative="1" as="geometry" />
        </mxCell>
        <mxCell id="3LMkU-X2zRB7gaWDaqeF-7" value="Отправлен&lt;br&gt;запрос&lt;br&gt;на вход" style="strokeWidth=2;html=1;shape=mxgraph.flowchart.decision;whiteSpace=wrap;" parent="1" vertex="1">
          <mxGeometry x="682" y="420" width="118.11" height="78.74" as="geometry" />
        </mxCell>
        <mxCell id="3LMkU-X2zRB7gaWDaqeF-9" value="Г1" style="strokeWidth=2;html=1;shape=mxgraph.flowchart.start_2;whiteSpace=wrap;" parent="1" vertex="1">
          <mxGeometry x="680.0000000000001" y="531.69" width="39.37" height="39.37" as="geometry" />
        </mxCell>
        <mxCell id="3LMkU-X2zRB7gaWDaqeF-19" style="edgeStyle=orthogonalEdgeStyle;rounded=0;orthogonalLoop=1;jettySize=auto;html=1;exitX=0;exitY=0.5;exitDx=0;exitDy=0;exitPerimeter=0;entryX=1;entryY=0.5;entryDx=0;entryDy=0;strokeWidth=2;" parent="1" source="3LMkU-X2zRB7gaWDaqeF-12" target="3LMkU-X2zRB7gaWDaqeF-18" edge="1">
          <mxGeometry relative="1" as="geometry" />
        </mxCell>
        <mxCell id="3LMkU-X2zRB7gaWDaqeF-36" style="edgeStyle=orthogonalEdgeStyle;rounded=0;orthogonalLoop=1;jettySize=auto;html=1;exitX=0.5;exitY=1;exitDx=0;exitDy=0;exitPerimeter=0;entryX=0.5;entryY=0;entryDx=0;entryDy=0;entryPerimeter=0;strokeWidth=2;endArrow=none;endFill=0;" parent="1" source="3LMkU-X2zRB7gaWDaqeF-12" target="3LMkU-X2zRB7gaWDaqeF-13" edge="1">
          <mxGeometry relative="1" as="geometry" />
        </mxCell>
        <mxCell id="3LMkU-X2zRB7gaWDaqeF-12" value="Выбрали &quot;Избранные&quot;" style="strokeWidth=2;html=1;shape=mxgraph.flowchart.decision;whiteSpace=wrap;" parent="1" vertex="1">
          <mxGeometry x="362.52" y="797.3100000000001" width="118.11" height="78.74" as="geometry" />
        </mxCell>
        <mxCell id="3LMkU-X2zRB7gaWDaqeF-21" style="edgeStyle=orthogonalEdgeStyle;rounded=0;orthogonalLoop=1;jettySize=auto;html=1;exitX=0;exitY=0.5;exitDx=0;exitDy=0;exitPerimeter=0;entryX=1;entryY=0.5;entryDx=0;entryDy=0;strokeWidth=2;" parent="1" source="3LMkU-X2zRB7gaWDaqeF-13" target="3LMkU-X2zRB7gaWDaqeF-20" edge="1">
          <mxGeometry relative="1" as="geometry" />
        </mxCell>
        <mxCell id="3LMkU-X2zRB7gaWDaqeF-37" style="edgeStyle=orthogonalEdgeStyle;rounded=0;orthogonalLoop=1;jettySize=auto;html=1;exitX=0.5;exitY=1;exitDx=0;exitDy=0;exitPerimeter=0;entryX=0.5;entryY=0;entryDx=0;entryDy=0;entryPerimeter=0;strokeWidth=2;endArrow=none;endFill=0;" parent="1" source="3LMkU-X2zRB7gaWDaqeF-13" target="3LMkU-X2zRB7gaWDaqeF-14" edge="1">
          <mxGeometry relative="1" as="geometry" />
        </mxCell>
        <mxCell id="3LMkU-X2zRB7gaWDaqeF-13" value="Выбрали&lt;br&gt;&quot;Мои заказы&quot;" style="strokeWidth=2;html=1;shape=mxgraph.flowchart.decision;whiteSpace=wrap;" parent="1" vertex="1">
          <mxGeometry x="362.52" y="897.3100000000001" width="118.11" height="78.74" as="geometry" />
        </mxCell>
        <mxCell id="3LMkU-X2zRB7gaWDaqeF-32" style="edgeStyle=orthogonalEdgeStyle;rounded=0;orthogonalLoop=1;jettySize=auto;html=1;exitX=0;exitY=0.5;exitDx=0;exitDy=0;exitPerimeter=0;entryX=1;entryY=0.5;entryDx=0;entryDy=0;strokeWidth=2;" parent="1" source="3LMkU-X2zRB7gaWDaqeF-14" target="3LMkU-X2zRB7gaWDaqeF-22" edge="1">
          <mxGeometry relative="1" as="geometry" />
        </mxCell>
        <mxCell id="3LMkU-X2zRB7gaWDaqeF-38" style="edgeStyle=orthogonalEdgeStyle;rounded=0;orthogonalLoop=1;jettySize=auto;html=1;exitX=0.5;exitY=1;exitDx=0;exitDy=0;exitPerimeter=0;entryX=0.5;entryY=0;entryDx=0;entryDy=0;entryPerimeter=0;strokeWidth=2;endArrow=none;endFill=0;" parent="1" source="3LMkU-X2zRB7gaWDaqeF-14" target="3LMkU-X2zRB7gaWDaqeF-15" edge="1">
          <mxGeometry relative="1" as="geometry" />
        </mxCell>
        <mxCell id="3LMkU-X2zRB7gaWDaqeF-14" value="Выбрали &quot;Устройства&quot;" style="strokeWidth=2;html=1;shape=mxgraph.flowchart.decision;whiteSpace=wrap;" parent="1" vertex="1">
          <mxGeometry x="362.52" y="997.3100000000001" width="118.11" height="78.74" as="geometry" />
        </mxCell>
        <mxCell id="3LMkU-X2zRB7gaWDaqeF-33" style="edgeStyle=orthogonalEdgeStyle;rounded=0;orthogonalLoop=1;jettySize=auto;html=1;exitX=0;exitY=0.5;exitDx=0;exitDy=0;exitPerimeter=0;entryX=1;entryY=0.5;entryDx=0;entryDy=0;strokeWidth=2;" parent="1" source="3LMkU-X2zRB7gaWDaqeF-15" target="3LMkU-X2zRB7gaWDaqeF-23" edge="1">
          <mxGeometry relative="1" as="geometry" />
        </mxCell>
        <mxCell id="3LMkU-X2zRB7gaWDaqeF-39" style="edgeStyle=orthogonalEdgeStyle;rounded=0;orthogonalLoop=1;jettySize=auto;html=1;exitX=0.5;exitY=1;exitDx=0;exitDy=0;exitPerimeter=0;entryX=0.5;entryY=0;entryDx=0;entryDy=0;entryPerimeter=0;strokeWidth=2;endArrow=none;endFill=0;" parent="1" source="3LMkU-X2zRB7gaWDaqeF-15" target="3LMkU-X2zRB7gaWDaqeF-16" edge="1">
          <mxGeometry relative="1" as="geometry" />
        </mxCell>
        <mxCell id="3LMkU-X2zRB7gaWDaqeF-15" value="Выбрали&lt;br&gt;&quot;Смена пароля&quot;" style="strokeWidth=2;html=1;shape=mxgraph.flowchart.decision;whiteSpace=wrap;" parent="1" vertex="1">
          <mxGeometry x="362.52" y="1097.3100000000002" width="118.11" height="78.74" as="geometry" />
        </mxCell>
        <mxCell id="3LMkU-X2zRB7gaWDaqeF-34" style="edgeStyle=orthogonalEdgeStyle;rounded=0;orthogonalLoop=1;jettySize=auto;html=1;exitX=0;exitY=0.5;exitDx=0;exitDy=0;exitPerimeter=0;entryX=1;entryY=0.5;entryDx=0;entryDy=0;strokeWidth=2;" parent="1" source="3LMkU-X2zRB7gaWDaqeF-16" target="3LMkU-X2zRB7gaWDaqeF-24" edge="1">
          <mxGeometry relative="1" as="geometry" />
        </mxCell>
        <mxCell id="3LMkU-X2zRB7gaWDaqeF-40" style="edgeStyle=orthogonalEdgeStyle;rounded=0;orthogonalLoop=1;jettySize=auto;html=1;exitX=0.5;exitY=1;exitDx=0;exitDy=0;exitPerimeter=0;entryX=0.5;entryY=0;entryDx=0;entryDy=0;entryPerimeter=0;strokeWidth=2;endArrow=none;endFill=0;" parent="1" source="3LMkU-X2zRB7gaWDaqeF-16" target="3LMkU-X2zRB7gaWDaqeF-17" edge="1">
          <mxGeometry relative="1" as="geometry" />
        </mxCell>
        <mxCell id="3LMkU-X2zRB7gaWDaqeF-16" value="Выбрали&lt;br&gt;Сменить email" style="strokeWidth=2;html=1;shape=mxgraph.flowchart.decision;whiteSpace=wrap;" parent="1" vertex="1">
          <mxGeometry x="362.52" y="1197.3100000000002" width="118.11" height="78.74" as="geometry" />
        </mxCell>
        <mxCell id="3LMkU-X2zRB7gaWDaqeF-28" style="edgeStyle=orthogonalEdgeStyle;rounded=0;orthogonalLoop=1;jettySize=auto;html=1;exitX=1;exitY=0.5;exitDx=0;exitDy=0;exitPerimeter=0;entryX=0;entryY=0.5;entryDx=0;entryDy=0;strokeWidth=2;endArrow=none;endFill=0;" parent="1" source="3LMkU-X2zRB7gaWDaqeF-17" target="3LMkU-X2zRB7gaWDaqeF-25" edge="1">
          <mxGeometry relative="1" as="geometry" />
        </mxCell>
        <mxCell id="3LMkU-X2zRB7gaWDaqeF-41" style="edgeStyle=orthogonalEdgeStyle;rounded=0;orthogonalLoop=1;jettySize=auto;html=1;exitX=0.5;exitY=1;exitDx=0;exitDy=0;exitPerimeter=0;entryX=0.5;entryY=1;entryDx=0;entryDy=0;entryPerimeter=0;strokeWidth=2;endArrow=none;endFill=0;" parent="1" source="3LMkU-X2zRB7gaWDaqeF-17" target="3LMkU-X2zRB7gaWDaqeF-31" edge="1">
          <mxGeometry relative="1" as="geometry" />
        </mxCell>
        <mxCell id="3LMkU-X2zRB7gaWDaqeF-17" value="Выбрали&lt;br&gt;&quot;Выход из&lt;br&gt;аккаунта&quot;" style="strokeWidth=2;html=1;shape=mxgraph.flowchart.decision;whiteSpace=wrap;" parent="1" vertex="1">
          <mxGeometry x="362.52" y="1297.3100000000002" width="118.11" height="78.74" as="geometry" />
        </mxCell>
        <mxCell id="3LMkU-X2zRB7gaWDaqeF-47" style="edgeStyle=orthogonalEdgeStyle;rounded=0;orthogonalLoop=1;jettySize=auto;html=1;exitX=0;exitY=0.5;exitDx=0;exitDy=0;strokeWidth=2;endArrow=none;endFill=0;" parent="1" source="3LMkU-X2zRB7gaWDaqeF-18" target="3LMkU-X2zRB7gaWDaqeF-31" edge="1">
          <mxGeometry relative="1" as="geometry">
            <Array as="points">
              <mxPoint x="142.51999999999998" y="836.3100000000001" />
              <mxPoint x="142.51999999999998" y="1417.3100000000002" />
              <mxPoint x="421.52" y="1417.3100000000002" />
            </Array>
          </mxGeometry>
        </mxCell>
        <mxCell id="3LMkU-X2zRB7gaWDaqeF-18" value="Отображение страницы &quot;Избранные&quot;" style="rounded=0;whiteSpace=wrap;html=1;absoluteArcSize=1;arcSize=14;strokeWidth=2;" parent="1" vertex="1">
          <mxGeometry x="205.03999999999996" y="797.3100000000001" width="118.11" height="78.74" as="geometry" />
        </mxCell>
        <mxCell id="3LMkU-X2zRB7gaWDaqeF-45" style="edgeStyle=orthogonalEdgeStyle;rounded=0;orthogonalLoop=1;jettySize=auto;html=1;exitX=0;exitY=0.5;exitDx=0;exitDy=0;entryX=0.5;entryY=1;entryDx=0;entryDy=0;entryPerimeter=0;strokeWidth=2;endArrow=none;endFill=0;" parent="1" source="3LMkU-X2zRB7gaWDaqeF-20" target="3LMkU-X2zRB7gaWDaqeF-31" edge="1">
          <mxGeometry relative="1" as="geometry">
            <Array as="points">
              <mxPoint x="142.51999999999998" y="936.3100000000001" />
              <mxPoint x="142.51999999999998" y="1417.3100000000002" />
              <mxPoint x="421.52" y="1417.3100000000002" />
            </Array>
          </mxGeometry>
        </mxCell>
        <mxCell id="3LMkU-X2zRB7gaWDaqeF-20" value="Отображение страницы&lt;br&gt;&quot;Мои заказы&quot;" style="rounded=0;whiteSpace=wrap;html=1;absoluteArcSize=1;arcSize=14;strokeWidth=2;" parent="1" vertex="1">
          <mxGeometry x="205.03999999999996" y="897.3100000000001" width="118.11" height="78.74" as="geometry" />
        </mxCell>
        <mxCell id="3LMkU-X2zRB7gaWDaqeF-44" style="edgeStyle=orthogonalEdgeStyle;rounded=0;orthogonalLoop=1;jettySize=auto;html=1;exitX=0;exitY=0.5;exitDx=0;exitDy=0;entryX=0.5;entryY=1;entryDx=0;entryDy=0;entryPerimeter=0;endArrow=none;endFill=0;strokeWidth=2;" parent="1" source="3LMkU-X2zRB7gaWDaqeF-22" target="3LMkU-X2zRB7gaWDaqeF-31" edge="1">
          <mxGeometry relative="1" as="geometry">
            <Array as="points">
              <mxPoint x="142.51999999999998" y="1036.3100000000002" />
              <mxPoint x="142.51999999999998" y="1417.3100000000002" />
              <mxPoint x="421.52" y="1417.3100000000002" />
            </Array>
          </mxGeometry>
        </mxCell>
        <mxCell id="3LMkU-X2zRB7gaWDaqeF-22" value="Отображение страницы&lt;br&gt;&quot;Устройства&quot;" style="rounded=0;whiteSpace=wrap;html=1;absoluteArcSize=1;arcSize=14;strokeWidth=2;" parent="1" vertex="1">
          <mxGeometry x="205.03999999999996" y="997.3100000000001" width="118.11" height="78.74" as="geometry" />
        </mxCell>
        <mxCell id="3LMkU-X2zRB7gaWDaqeF-43" style="edgeStyle=orthogonalEdgeStyle;rounded=0;orthogonalLoop=1;jettySize=auto;html=1;exitX=0;exitY=0.5;exitDx=0;exitDy=0;entryX=0.5;entryY=1;entryDx=0;entryDy=0;entryPerimeter=0;strokeWidth=2;endArrow=none;endFill=0;" parent="1" source="3LMkU-X2zRB7gaWDaqeF-23" target="3LMkU-X2zRB7gaWDaqeF-31" edge="1">
          <mxGeometry relative="1" as="geometry">
            <Array as="points">
              <mxPoint x="142.51999999999998" y="1136.3100000000002" />
              <mxPoint x="142.51999999999998" y="1417.3100000000002" />
              <mxPoint x="421.52" y="1417.3100000000002" />
            </Array>
          </mxGeometry>
        </mxCell>
        <mxCell id="3LMkU-X2zRB7gaWDaqeF-23" value="Отображение страницы&lt;br&gt;&quot;Смена пароля&quot;" style="rounded=0;whiteSpace=wrap;html=1;absoluteArcSize=1;arcSize=14;strokeWidth=2;" parent="1" vertex="1">
          <mxGeometry x="205.03999999999996" y="1097.3100000000002" width="118.11" height="78.74" as="geometry" />
        </mxCell>
        <mxCell id="3LMkU-X2zRB7gaWDaqeF-42" style="edgeStyle=orthogonalEdgeStyle;rounded=0;orthogonalLoop=1;jettySize=auto;html=1;exitX=0;exitY=0.5;exitDx=0;exitDy=0;entryX=0.5;entryY=1;entryDx=0;entryDy=0;entryPerimeter=0;endArrow=none;endFill=0;strokeWidth=2;" parent="1" source="3LMkU-X2zRB7gaWDaqeF-24" target="3LMkU-X2zRB7gaWDaqeF-31" edge="1">
          <mxGeometry relative="1" as="geometry">
            <Array as="points">
              <mxPoint x="142.51999999999998" y="1236.3100000000002" />
              <mxPoint x="142.51999999999998" y="1417.3100000000002" />
              <mxPoint x="421.52" y="1417.3100000000002" />
            </Array>
          </mxGeometry>
        </mxCell>
        <mxCell id="3LMkU-X2zRB7gaWDaqeF-24" value="Отображение страницы&lt;br&gt;&quot;Сменить email&quot;" style="rounded=0;whiteSpace=wrap;html=1;absoluteArcSize=1;arcSize=14;strokeWidth=2;" parent="1" vertex="1">
          <mxGeometry x="205.03999999999996" y="1197.3100000000002" width="118.11" height="78.74" as="geometry" />
        </mxCell>
        <mxCell id="3LMkU-X2zRB7gaWDaqeF-30" style="edgeStyle=orthogonalEdgeStyle;rounded=0;orthogonalLoop=1;jettySize=auto;html=1;exitX=0.5;exitY=1;exitDx=0;exitDy=0;entryX=0.5;entryY=0;entryDx=0;entryDy=0;entryPerimeter=0;strokeWidth=2;endArrow=none;endFill=0;" parent="1" source="3LMkU-X2zRB7gaWDaqeF-25" target="3LMkU-X2zRB7gaWDaqeF-29" edge="1">
          <mxGeometry relative="1" as="geometry" />
        </mxCell>
        <mxCell id="3LMkU-X2zRB7gaWDaqeF-25" value="Запрос на выход из аккаунта" style="rounded=0;whiteSpace=wrap;html=1;absoluteArcSize=1;arcSize=14;strokeWidth=2;" parent="1" vertex="1">
          <mxGeometry x="528.45" y="1297.31" width="118.11" height="78.74" as="geometry" />
        </mxCell>
        <mxCell id="3LMkU-X2zRB7gaWDaqeF-29" value="Г1" style="strokeWidth=2;html=1;shape=mxgraph.flowchart.start_2;whiteSpace=wrap;" parent="1" vertex="1">
          <mxGeometry x="562.8200000000002" y="1397.31" width="39.37" height="39.37" as="geometry" />
        </mxCell>
        <mxCell id="3LMkU-X2zRB7gaWDaqeF-57" style="edgeStyle=orthogonalEdgeStyle;rounded=0;orthogonalLoop=1;jettySize=auto;html=1;exitX=0.5;exitY=0;exitDx=0;exitDy=0;exitPerimeter=0;entryX=0.5;entryY=0;entryDx=0;entryDy=0;entryPerimeter=0;strokeWidth=2;endArrow=none;endFill=0;" parent="1" source="3LMkU-X2zRB7gaWDaqeF-31" target="KvnRA5Yr2zpOSTINbMvu-25" edge="1">
          <mxGeometry relative="1" as="geometry">
            <Array as="points">
              <mxPoint x="421.63" y="1537.3100000000002" />
              <mxPoint x="100.63" y="1537.3100000000002" />
              <mxPoint x="100.63" y="1557.3100000000002" />
            </Array>
          </mxGeometry>
        </mxCell>
        <mxCell id="3LMkU-X2zRB7gaWDaqeF-31" value="Конец цикла" style="strokeWidth=2;html=1;shape=mxgraph.flowchart.loop_limit;whiteSpace=wrap;flipH=1;flipV=1;" parent="1" vertex="1">
          <mxGeometry x="362.52" y="1436.68" width="118.11" height="78.74" as="geometry" />
        </mxCell>
        <mxCell id="3LMkU-X2zRB7gaWDaqeF-51" style="edgeStyle=orthogonalEdgeStyle;rounded=0;orthogonalLoop=1;jettySize=auto;html=1;exitX=0.5;exitY=0;exitDx=0;exitDy=0;exitPerimeter=0;entryX=0.5;entryY=0;entryDx=0;entryDy=0;entryPerimeter=0;strokeWidth=2;endArrow=none;endFill=0;" parent="1" source="3LMkU-X2zRB7gaWDaqeF-48" target="3LMkU-X2zRB7gaWDaqeF-49" edge="1">
          <mxGeometry relative="1" as="geometry" />
        </mxCell>
        <mxCell id="3LMkU-X2zRB7gaWDaqeF-48" value="Конец" style="strokeWidth=2;html=1;shape=mxgraph.flowchart.loop_limit;whiteSpace=wrap;flipH=1;flipV=1;" parent="1" vertex="1">
          <mxGeometry x="42.52" y="1617.3100000000002" width="118.11" height="78.74" as="geometry" />
        </mxCell>
        <mxCell id="3LMkU-X2zRB7gaWDaqeF-49" value="Конец" style="strokeWidth=2;html=1;shape=mxgraph.flowchart.terminator;whiteSpace=wrap;" parent="1" vertex="1">
          <mxGeometry x="42.52" y="1717.3100000000002" width="118.11" height="39.37" as="geometry" />
        </mxCell>
        <mxCell id="3LMkU-X2zRB7gaWDaqeF-56" style="edgeStyle=orthogonalEdgeStyle;rounded=0;orthogonalLoop=1;jettySize=auto;html=1;exitX=1;exitY=0.5;exitDx=0;exitDy=0;entryX=0;entryY=0.5;entryDx=0;entryDy=0;entryPerimeter=0;strokeWidth=2;endArrow=none;endFill=0;" parent="1" source="3LMkU-X2zRB7gaWDaqeF-54" target="_mmpPYD25XxmWE7m6DI2-11" edge="1">
          <mxGeometry relative="1" as="geometry" />
        </mxCell>
        <mxCell id="3LMkU-X2zRB7gaWDaqeF-54" value="Отправка на email&lt;br&gt;логин и новый сгенерированый пароль" style="rounded=0;whiteSpace=wrap;html=1;absoluteArcSize=1;arcSize=14;strokeWidth=2;" parent="1" vertex="1">
          <mxGeometry x="997.48" y="522" width="118.11" height="78.74" as="geometry" />
        </mxCell>
        <mxCell id="3LMkU-X2zRB7gaWDaqeF-58" value="Да" style="text;html=1;align=center;verticalAlign=middle;resizable=0;points=[];autosize=1;strokeColor=none;fillColor=none;" parent="1" vertex="1">
          <mxGeometry x="381.89" y="190" width="40" height="30" as="geometry" />
        </mxCell>
        <mxCell id="3LMkU-X2zRB7gaWDaqeF-59" value="Нет" style="text;html=1;align=center;verticalAlign=middle;resizable=0;points=[];autosize=1;strokeColor=none;fillColor=none;" parent="1" vertex="1">
          <mxGeometry x="478.11" y="130" width="40" height="30" as="geometry" />
        </mxCell>
        <mxCell id="3LMkU-X2zRB7gaWDaqeF-60" value="Да" style="text;html=1;align=center;verticalAlign=middle;resizable=0;points=[];autosize=1;strokeColor=none;fillColor=none;" parent="1" vertex="1">
          <mxGeometry x="332.52" y="807.3100000000001" width="40" height="30" as="geometry" />
        </mxCell>
        <mxCell id="3LMkU-X2zRB7gaWDaqeF-61" value="Да" style="text;html=1;align=center;verticalAlign=middle;resizable=0;points=[];autosize=1;strokeColor=none;fillColor=none;" parent="1" vertex="1">
          <mxGeometry x="332.52" y="907.3100000000001" width="40" height="30" as="geometry" />
        </mxCell>
        <mxCell id="3LMkU-X2zRB7gaWDaqeF-62" value="Да" style="text;html=1;align=center;verticalAlign=middle;resizable=0;points=[];autosize=1;strokeColor=none;fillColor=none;" parent="1" vertex="1">
          <mxGeometry x="332.52" y="1007.3100000000001" width="40" height="30" as="geometry" />
        </mxCell>
        <mxCell id="3LMkU-X2zRB7gaWDaqeF-63" value="Да" style="text;html=1;align=center;verticalAlign=middle;resizable=0;points=[];autosize=1;strokeColor=none;fillColor=none;" parent="1" vertex="1">
          <mxGeometry x="332.52" y="1107.3100000000002" width="40" height="30" as="geometry" />
        </mxCell>
        <mxCell id="3LMkU-X2zRB7gaWDaqeF-64" value="Да" style="text;html=1;align=center;verticalAlign=middle;resizable=0;points=[];autosize=1;strokeColor=none;fillColor=none;" parent="1" vertex="1">
          <mxGeometry x="332.52" y="1207.3100000000002" width="40" height="30" as="geometry" />
        </mxCell>
        <mxCell id="3LMkU-X2zRB7gaWDaqeF-65" value="Да" style="text;html=1;align=center;verticalAlign=middle;resizable=0;points=[];autosize=1;strokeColor=none;fillColor=none;" parent="1" vertex="1">
          <mxGeometry x="483.45" y="1307.31" width="40" height="30" as="geometry" />
        </mxCell>
        <mxCell id="3LMkU-X2zRB7gaWDaqeF-66" value="Нет" style="text;html=1;align=center;verticalAlign=middle;resizable=0;points=[];autosize=1;strokeColor=none;fillColor=none;" parent="1" vertex="1">
          <mxGeometry x="382.52" y="867.3100000000001" width="40" height="30" as="geometry" />
        </mxCell>
        <mxCell id="3LMkU-X2zRB7gaWDaqeF-67" value="Нет" style="text;html=1;align=center;verticalAlign=middle;resizable=0;points=[];autosize=1;strokeColor=none;fillColor=none;" parent="1" vertex="1">
          <mxGeometry x="382.52" y="967.3100000000002" width="40" height="30" as="geometry" />
        </mxCell>
        <mxCell id="3LMkU-X2zRB7gaWDaqeF-68" value="Нет" style="text;html=1;align=center;verticalAlign=middle;resizable=0;points=[];autosize=1;strokeColor=none;fillColor=none;" parent="1" vertex="1">
          <mxGeometry x="382.52" y="1067.3100000000002" width="40" height="30" as="geometry" />
        </mxCell>
        <mxCell id="3LMkU-X2zRB7gaWDaqeF-69" value="Нет" style="text;html=1;align=center;verticalAlign=middle;resizable=0;points=[];autosize=1;strokeColor=none;fillColor=none;" parent="1" vertex="1">
          <mxGeometry x="382.52" y="1167.3100000000002" width="40" height="30" as="geometry" />
        </mxCell>
        <mxCell id="3LMkU-X2zRB7gaWDaqeF-70" value="Нет" style="text;html=1;align=center;verticalAlign=middle;resizable=0;points=[];autosize=1;strokeColor=none;fillColor=none;" parent="1" vertex="1">
          <mxGeometry x="382.52" y="1367.3100000000002" width="40" height="30" as="geometry" />
        </mxCell>
        <mxCell id="3LMkU-X2zRB7gaWDaqeF-71" value="Да" style="text;html=1;align=center;verticalAlign=middle;resizable=0;points=[];autosize=1;strokeColor=none;fillColor=none;" parent="1" vertex="1">
          <mxGeometry x="790" y="231" width="40" height="30" as="geometry" />
        </mxCell>
        <mxCell id="3LMkU-X2zRB7gaWDaqeF-72" value="Нет" style="text;html=1;align=center;verticalAlign=middle;resizable=0;points=[];autosize=1;strokeColor=none;fillColor=none;" parent="1" vertex="1">
          <mxGeometry x="700" y="288" width="40" height="30" as="geometry" />
        </mxCell>
        <mxCell id="3LMkU-X2zRB7gaWDaqeF-73" value="Да" style="text;html=1;align=center;verticalAlign=middle;resizable=0;points=[];autosize=1;strokeColor=none;fillColor=none;" parent="1" vertex="1">
          <mxGeometry x="790" y="330" width="40" height="30" as="geometry" />
        </mxCell>
        <mxCell id="3LMkU-X2zRB7gaWDaqeF-74" value="Нет" style="text;html=1;align=center;verticalAlign=middle;resizable=0;points=[];autosize=1;strokeColor=none;fillColor=none;" parent="1" vertex="1">
          <mxGeometry x="700" y="390" width="40" height="30" as="geometry" />
        </mxCell>
        <mxCell id="3LMkU-X2zRB7gaWDaqeF-83" style="edgeStyle=orthogonalEdgeStyle;rounded=0;orthogonalLoop=1;jettySize=auto;html=1;exitX=0.5;exitY=1;exitDx=0;exitDy=0;entryX=0.5;entryY=0;entryDx=0;entryDy=0;entryPerimeter=0;strokeWidth=2;endArrow=none;endFill=0;" parent="1" source="3LMkU-X2zRB7gaWDaqeF-76" target="3LMkU-X2zRB7gaWDaqeF-78" edge="1">
          <mxGeometry relative="1" as="geometry" />
        </mxCell>
        <mxCell id="3LMkU-X2zRB7gaWDaqeF-76" value="Проверка логина и пароля в БД" style="rounded=0;whiteSpace=wrap;html=1;absoluteArcSize=1;arcSize=14;strokeWidth=2;" parent="1" vertex="1">
          <mxGeometry x="525" y="420" width="118.11" height="78.74" as="geometry" />
        </mxCell>
        <mxCell id="3LMkU-X2zRB7gaWDaqeF-81" style="edgeStyle=orthogonalEdgeStyle;rounded=0;orthogonalLoop=1;jettySize=auto;html=1;exitX=1;exitY=0.5;exitDx=0;exitDy=0;exitPerimeter=0;entryX=0;entryY=0.5;entryDx=0;entryDy=0;entryPerimeter=0;strokeWidth=2;endArrow=none;endFill=0;" parent="1" source="3LMkU-X2zRB7gaWDaqeF-78" target="3LMkU-X2zRB7gaWDaqeF-9" edge="1">
          <mxGeometry relative="1" as="geometry" />
        </mxCell>
        <mxCell id="3LMkU-X2zRB7gaWDaqeF-82" style="edgeStyle=orthogonalEdgeStyle;rounded=0;orthogonalLoop=1;jettySize=auto;html=1;exitX=0.5;exitY=1;exitDx=0;exitDy=0;exitPerimeter=0;entryX=0.5;entryY=0;entryDx=0;entryDy=0;strokeWidth=2;endArrow=none;endFill=0;" parent="1" source="3LMkU-X2zRB7gaWDaqeF-78" target="3LMkU-X2zRB7gaWDaqeF-79" edge="1">
          <mxGeometry relative="1" as="geometry" />
        </mxCell>
        <mxCell id="3LMkU-X2zRB7gaWDaqeF-78" value="Статус не 200" style="strokeWidth=2;html=1;shape=mxgraph.flowchart.decision;whiteSpace=wrap;" parent="1" vertex="1">
          <mxGeometry x="525" y="512" width="118.11" height="78.74" as="geometry" />
        </mxCell>
        <mxCell id="3LMkU-X2zRB7gaWDaqeF-80" style="edgeStyle=orthogonalEdgeStyle;rounded=0;orthogonalLoop=1;jettySize=auto;html=1;exitX=0.5;exitY=1;exitDx=0;exitDy=0;entryX=0.5;entryY=1;entryDx=0;entryDy=0;entryPerimeter=0;strokeWidth=2;endArrow=none;endFill=0;" parent="1" source="3LMkU-X2zRB7gaWDaqeF-79" target="3LMkU-X2zRB7gaWDaqeF-4" edge="1">
          <mxGeometry relative="1" as="geometry">
            <Array as="points">
              <mxPoint x="585" y="820" />
              <mxPoint x="741" y="820" />
            </Array>
          </mxGeometry>
        </mxCell>
        <mxCell id="3LMkU-X2zRB7gaWDaqeF-79" value="Сообщение об ошибке" style="rounded=0;whiteSpace=wrap;html=1;absoluteArcSize=1;arcSize=14;strokeWidth=2;" parent="1" vertex="1">
          <mxGeometry x="525" y="611.26" width="118.11" height="78.74" as="geometry" />
        </mxCell>
        <mxCell id="3LMkU-X2zRB7gaWDaqeF-84" value="Да" style="text;html=1;align=center;verticalAlign=middle;resizable=0;points=[];autosize=1;strokeColor=none;fillColor=none;" parent="1" vertex="1">
          <mxGeometry x="545" y="581.05" width="40" height="30" as="geometry" />
        </mxCell>
        <mxCell id="3LMkU-X2zRB7gaWDaqeF-85" value="Нет" style="text;html=1;align=center;verticalAlign=middle;resizable=0;points=[];autosize=1;strokeColor=none;fillColor=none;" parent="1" vertex="1">
          <mxGeometry x="638.11" y="520" width="40" height="30" as="geometry" />
        </mxCell>
        <mxCell id="3LMkU-X2zRB7gaWDaqeF-86" value="Да" style="text;html=1;align=center;verticalAlign=middle;resizable=0;points=[];autosize=1;strokeColor=none;fillColor=none;" parent="1" vertex="1">
          <mxGeometry x="650" y="428.74" width="40" height="30" as="geometry" />
        </mxCell>
        <mxCell id="3LMkU-X2zRB7gaWDaqeF-87" value="Нет" style="text;html=1;align=center;verticalAlign=middle;resizable=0;points=[];autosize=1;strokeColor=none;fillColor=none;" parent="1" vertex="1">
          <mxGeometry x="700" y="492" width="40" height="30" as="geometry" />
        </mxCell>
        <mxCell id="3LMkU-X2zRB7gaWDaqeF-88" value="Да" style="text;html=1;align=center;verticalAlign=middle;resizable=0;points=[];autosize=1;strokeColor=none;fillColor=none;" parent="1" vertex="1">
          <mxGeometry x="957.48" y="430" width="40" height="30" as="geometry" />
        </mxCell>
        <mxCell id="3LMkU-X2zRB7gaWDaqeF-89" value="Да" style="text;html=1;align=center;verticalAlign=middle;resizable=0;points=[];autosize=1;strokeColor=none;fillColor=none;" parent="1" vertex="1">
          <mxGeometry x="957.48" y="531.69" width="40" height="30" as="geometry" />
        </mxCell>
        <mxCell id="3LMkU-X2zRB7gaWDaqeF-93" value="Да" style="text;html=1;align=center;verticalAlign=middle;resizable=0;points=[];autosize=1;strokeColor=none;fillColor=none;" parent="1" vertex="1">
          <mxGeometry x="960" y="630" width="40" height="30" as="geometry" />
        </mxCell>
        <mxCell id="3LMkU-X2zRB7gaWDaqeF-94" value="Нет" style="text;html=1;align=center;verticalAlign=middle;resizable=0;points=[];autosize=1;strokeColor=none;fillColor=none;" parent="1" vertex="1">
          <mxGeometry x="860" y="490" width="40" height="30" as="geometry" />
        </mxCell>
        <mxCell id="3LMkU-X2zRB7gaWDaqeF-95" value="Нет" style="text;html=1;align=center;verticalAlign=middle;resizable=0;points=[];autosize=1;strokeColor=none;fillColor=none;" parent="1" vertex="1">
          <mxGeometry x="860" y="598.74" width="40" height="30" as="geometry" />
        </mxCell>
        <mxCell id="3LMkU-X2zRB7gaWDaqeF-96" value="Нет" style="text;html=1;align=center;verticalAlign=middle;resizable=0;points=[];autosize=1;strokeColor=none;fillColor=none;" parent="1" vertex="1">
          <mxGeometry x="860" y="690" width="40" height="30" as="geometry" />
        </mxCell>
      </root>
    </mxGraphModel>
  </diagram>
</mxfile>
